<?xml version="1.0" standalone="no"?>
<!DOCTYPE svg PUBLIC "-//W3C//DTD SVG 20010904//EN"
 "http://www.w3.org/TR/2001/REC-SVG-20010904/DTD/svg10.dtd">
<svg version="1.0" xmlns="http://www.w3.org/2000/svg"
 width="980.000000pt" height="980.000000pt" viewBox="0 0 980.000000 980.000000"
 preserveAspectRatio="xMidYMid meet">

<g transform="translate(0.000000,980.000000) scale(0.100000,-0.100000)"
fill="#000000" stroke="none">
<path d="M4325 8940 c-767 -43 -1492 -295 -2115 -733 -548 -385 -990 -898
-1289 -1496 -219 -436 -349 -873 -408 -1368 -21 -183 -24 -668 -5 -843 36
-318 101 -618 196 -896 408 -1199 1353 -2140 2551 -2540 286 -95 561 -155 885
-191 130 -15 251 -17 755 -17 617 0 696 3 971 44 1503 222 2767 1291 3243
2743 89 273 150 557 183 862 19 179 16 653 -5 838 -57 484 -189 931 -397 1348
-322 647 -787 1175 -1385 1574 -568 379 -1164 590 -1875 666 -127 13 -1109 20
-1305 9z m590 -305 c876 -93 1655 -464 2275 -1085 850 -850 1238 -2037 1054
-3227 -214 -1386 -1199 -2549 -2531 -2988 -220 -73 -451 -126 -698 -161 -153
-21 -616 -30 -798 -15 -1128 96 -2155 701 -2793 1646 -691 1023 -832 2315
-379 3475 20 52 76 176 125 275 357 728 946 1325 1672 1694 437 222 863 342
1398 394 107 11 549 5 675 -8z m1765 -262 c157 -63 429 -203 580 -298 1245
-790 1914 -2209 1725 -3660 -161 -1236 -933 -2315 -2055 -2873 -85 -43 -191
-92 -235 -109 -44 -17 -105 -41 -135 -53 -70 -28 -67 -25 65 55 774 469 1385
1202 1696 2036 179 482 259 919 259 1424 1 352 -37 660 -120 990 -186 736
-571 1400 -1121 1930 -228 220 -524 444 -771 584 -32 18 -58 34 -58 36 0 5 20
-2 170 -62z"/>
<path d="M3480 7504 c-90 -14 -145 -31 -220 -66 -114 -54 -239 -177 -294 -288
-77 -158 -70 68 -73 -2355 -4 -2334 -5 -2239 46 -2376 75 -199 266 -360 481
-405 88 -19 225 -14 310 12 162 48 330 188 402 334 69 140 68 122 71 987 l2
778 715 6 c771 6 733 3 910 61 384 125 688 465 788 882 l27 111 0 625 c0 561
-2 634 -18 713 -64 314 -235 579 -492 762 -134 95 -273 157 -450 198 -88 21
-112 21 -1135 23 -575 1 -1056 0 -1070 -2z m2146 -307 c358 -79 637 -359 710
-711 12 -62 14 -172 12 -702 l-3 -629 -29 -85 c-101 -301 -314 -517 -596 -606
-131 -42 -176 -44 -950 -44 -708 0 -747 -1 -780 -19 -19 -10 -44 -34 -55 -52
-19 -33 -20 -57 -25 -909 l-5 -875 -27 -57 c-113 -242 -417 -289 -597 -93 -28
31 -60 80 -73 113 l-23 57 0 2170 0 2170 23 57 c49 121 169 214 295 228 34 5
510 7 1057 6 866 -2 1004 -5 1066 -19z"/>
<path d="M3986 6466 c-78 -47 -75 -22 -76 -644 0 -610 -1 -597 63 -646 l34
-26 755 2 755 3 37 29 c77 58 76 46 76 631 0 521 0 521 -22 565 -13 24 -40 58
-61 74 l-39 31 -741 3 -742 2 -39 -24z m1349 -646 l0 -375 -565 0 -565 0 -3
365 c-1 201 0 371 3 377 3 10 124 12 567 10 l563 -2 0 -375z"/>
</g>
</svg>
